PathFileType	4	(X/Y/Z)	Patient4_TMGait_0pt2_02_right_12.trc.trc
DataRate	CameraRate	NumFrames	NumMarkers	Units	OrigDataRate	OrigDataStartFrame	OrigNumFrames
49.469964664311	49.469964664311	6	33	mm	49.469964664311	89	       141
Frame#	Time	R.Midfoot.Superior			Sacral			L.Shoulder			Chest			R.Shoulder			Neck			R.ASIS			L.ASIS			R.Thigh.Superior			R.Thigh.Lateral			R.Thigh.Inferior			R.Patella			L.Thigh.Superior			L.Thigh.Lateral			L.Thigh.Inferior			L.Patella			L.Shank.Superior			L.Shank.Lateral			L.Shank.Inferior			R.Shank.Superior			R.Shank.Lateral			R.Shank.Inferior			R.Heel			R.Midfoot.Lateral			R.Toe			L.Heel			L.Midfoot.Lateral			L.Midfoot.Superior			L.Toe			L.Elbow			L.Wrist			R.Elbow			R.Wrist			
		X1	Y1	Z1	X2	Y2	Z2	X3	Y3	Z3	X4	Y4	Z4	X5	Y5	Z5	X6	Y6	Z6	X7	Y7	Z7	X8	Y8	Z8	X9	Y9	Z9	X10	Y10	Z10	X11	Y11	Z11	X12	Y12	Z12	X13	Y13	Z13	X14	Y14	Z14	X15	Y15	Z15	X16	Y16	Z16	X17	Y17	Z17	X18	Y18	Z18	X19	Y19	Z19	X20	Y20	Z20	X21	Y21	Z21	X22	Y22	Z22	X23	Y23	Z23	X24	Y24	Z24	X25	Y25	Z25	X26	Y26	Z26	X27	Y27	Z27	X28	Y28	Z28	X29	Y29	Z29	X30	Y30	Z30	X31	Y31	Z31	X32	Y32	Z32	X33	Y33	Z33	

89	28.468857142857	607.921651861361	98.276308984743	540.460153855379	579.425496261445	1006.534747699958	469.637125137501	741.171869633906	1422.366094972574	241.148298996583	878.264856466672	1343.690467196664	369.722116896460	851.459674921412	1432.847872283882	550.173047832908	766.390474192410	1480.741841009158	397.596892667234	817.938303302490	926.671198565530	550.843656053855	764.870000556048	945.930086199767	282.302467948667	806.636615457348	712.609854495869	524.424378059246	705.983832303848	619.959577393106	594.147215979423	756.555866115739	554.228682040870	508.040644628840	733.234995596893	465.627620520315	514.898416571059	845.543050257069	765.672183652898	326.726149466036	794.307120585162	630.435578716766	257.834198532897	894.368681196698	572.939321657866	321.946816266065	911.059157789302	498.490303813168	325.280983847464	885.160274814431	422.999153680477	314.660484081641	801.515948032004	308.860732556611	254.131266529494	852.109137316788	195.253371591542	320.191422876570	682.026340629141	386.954855580684	526.420642061145	591.441912966516	304.971202880479	597.634848762158	601.532757835603	203.485582097694	532.099010354279	430.071851135135	60.562678086476	514.991250849543	516.745380874933	45.194426912865	583.512558558212	722.872366245091	37.157548076348	561.548295056412	723.339505566153	39.148853150712	345.142846258690	803.180275270464	35.989211279743	270.566120105401	885.134120364225	96.605027960442	303.505642033161	1014.553646204068	42.672023654086	283.347402326169	537.790913196175	1132.655970865467	185.962463334720	469.785149989827	888.893818454218	259.238123889862	1099.321746329813	1228.814403948547	631.869223403377	1277.677492143460	1342.339022778518	487.213831542867	
90	28.489071428571	604.809084849126	98.520493627276	540.535994148796	581.434164820931	1006.692198814631	463.943801516148	744.026957293777	1422.650880208683	236.667668291409	880.376000386824	1344.184147125817	366.121402581977	852.072112894582	1433.234282090007	546.421422814243	768.047503177906	1481.102597273864	393.382401612236	819.405848079018	926.962428592443	546.943053346406	768.274594986323	945.969873338521	278.016674900020	807.481627575994	712.703344622490	521.513462079573	706.222380003599	620.702000062520	591.276009480519	757.207972440137	554.172595636911	505.962365943248	733.651198052420	465.286372697720	513.466515808150	848.190051019692	765.201751522618	323.199837048567	796.470636577340	629.877261406242	254.781776527173	896.049182895060	572.104221440045	319.407542576575	912.270525026534	497.480654969927	323.309512507570	885.594127195596	421.835984575096	313.060431093139	800.840023690645	308.348659632297	252.719389418790	849.762497635428	194.679426354043	319.769727953571	681.447394310885	387.177456515982	525.106669139219	589.691541079545	306.534851859281	596.391742248814	599.280808008041	204.373260098709	531.792277446079	426.553720341847	62.886824890113	515.160008729732	513.129787215875	46.306341209719	583.548601710626	719.075920680585	37.021145050545	561.557037442406	719.325127993123	39.093814396346	345.093886007312	799.161059225980	35.923181235177	270.461144439963	881.166704310421	96.517365524031	303.492879869289	1010.602059897828	42.422102679235	283.364582091865	542.488293843923	1131.799839440839	178.613079261551	475.417538552828	886.992030099382	248.933878329494	1099.727087866752	1228.723496382919	629.247410356572	1282.056462871006	1338.953735761802	486.664159298076	
91	28.509285714286	601.901467856181	98.677585766403	540.641349830045	583.417706353341	1006.943121529791	458.120416835223	746.919115956519	1423.066329291025	232.231098871993	882.404507120150	1344.871917967953	362.708906177447	852.404825841714	1433.852263541684	542.814267965026	769.604457447296	1481.623696494992	389.201976933178	820.820188826409	927.389120728220	542.995807178890	771.729241554759	946.139018783987	273.662127299331	808.531700324373	712.945672397564	518.503625988800	706.792292613999	621.458384034451	588.297280307175	758.336218607468	554.175845511697	503.809853768184	734.678432580459	464.831477485617	512.078521959074	850.685540409372	764.615803424248	319.402620740639	798.164070259398	629.299171290498	251.559509832733	897.198230858191	571.143182378357	316.669976329299	912.856383241386	496.439560345026	321.157773739808	885.452322980846	420.688141284943	311.285367465903	799.642201361707	307.767364930812	251.213182690491	847.142621244488	194.122076931173	319.230563075757	681.331472169057	387.391001595099	523.785588784423	588.284803756794	308.212675073027	595.091489928687	597.324685358532	205.308505541382	531.508229945901	423.141028963366	65.413738280941	515.342194588843	509.604692716646	47.454976151226	583.581681236994	715.351257359037	36.827938581843	561.524831195766	715.246376225293	38.984044949893	345.045103799616	795.074563934129	35.827327576050	270.337757252148	877.103546904225	96.427425742909	303.443126373434	1006.571499224725	42.271068386676	283.373655283223	547.667348447281	1130.728796946307	171.120336903599	481.878903670970	884.725319218706	238.018966897984	1099.347142689123	1228.098438871571	627.233835011740	1286.068500460565	1334.726863009018	487.331989778965	
92	28.529500000000	599.271332874472	98.778355765297	540.796278822738	585.362192905557	1007.312206792219	452.191431555049	749.851110927588	1423.617350222139	227.847137172317	884.353924001083	1345.750338963789	359.481925926805	852.493345997469	1434.711029841525	539.342639673476	771.080209563980	1482.317385462407	385.063857213416	822.159606426894	927.967342669083	539.008772408407	775.200638686002	946.459333026526	269.255194432725	809.856399245295	713.365099900918	515.423490153706	707.797618770342	622.216259591778	585.241140205138	760.092423742964	554.246058567098	501.616644350329	736.479317177569	464.250816603469	510.792697537236	853.005357589091	763.948700061223	315.342271143551	799.374643041605	628.739874220641	248.170486538489	897.813118404826	570.099319148888	313.720747705412	912.817596244355	495.404865928062	318.802101064601	884.744922921123	419.593768790320	309.323578615507	797.948489953034	307.145843454728	249.604836298178	844.264003816259	193.597923663626	318.571386582863	681.833933801368	387.601613879994	522.499139418828	587.342496401221	310.054161353215	593.757027579673	595.768628246283	206.337347682079	531.263671339178	419.904404671930	68.275310225848	515.525079441348	506.207083653424	48.717713548816	583.605072689361	711.708461396235	36.537009795376	561.444200044608	711.124394874962	38.843616133892	344.996894126218	790.942451705104	35.714009549246	270.202296733936	872.973566340222	96.337820414039	303.355110735795	1002.485822022279	42.197055720951	283.373327691384	553.430311075610	1129.374301023672	163.542354348044	489.412277441611	882.022487510468	226.580271383506	1098.069005278092	1226.760460402584	625.797472855674	1289.602469785141	1329.427345552259	489.246453621781	
93	28.549714285714	596.997230229343	98.895944898517	541.015848403027	587.252077721228	1007.802215902755	446.180526012402	752.826039314372	1424.295281202003	223.524568314959	886.223639016458	1346.802519236275	356.441029762973	852.361274294891	1435.799167838348	536.001908173084	772.487524698934	1483.179016124294	380.976780102049	823.399694962320	928.704293008857	534.994985859549	778.660375438405	946.938027840460	264.820211931213	811.552530048700	713.990323873963	512.306168154304	709.386346901727	622.953379549702	582.143279041901	762.679043566292	554.389341587883	499.418594191071	739.267938250208	463.533287042999	509.663402425543	855.138861451549	763.228247800853	311.042038393351	800.124207871312	628.229292848478	244.625176813757	897.928267242251	569.013508907660	310.560228096795	912.200407778308	494.405613204484	316.227770089676	883.521402842882	418.580577585471	307.170276186150	795.814387587771	306.510475981349	247.892335758713	841.158604807150	193.119097419391	317.794683001463	683.157276185296	387.812647060724	521.285705045488	587.032872706091	312.123963418278	592.408187121400	594.744883281459	207.531106552807	531.069546417180	416.942881331426	71.674272708547	515.688193034553	502.983431288709	50.236537386795	583.607075406767	708.146071198623	36.110044258584	561.314217583979	706.982063819066	38.697718405532	344.949680686625	786.788005432997	35.596212824077	270.062714795236	868.809819971854	96.250014037542	303.230202102398	998.371054942821	42.170157623422	283.362888698982	559.891033229312	1127.670489519531	155.924417134435	498.255815053022	878.827355493773	214.718088065957	1095.765485432819	1224.532916103147	624.895955007461	1292.533424102098	1322.777638500758	492.401077523493	
94	28.569928571429	595.154340084079	99.154725755082	541.305416119902	589.068795657628	1008.388209054159	440.112949809477	755.843744420729	1425.072592145736	219.274371690670	888.005526292641	1347.992090444708	353.591836815752	852.017837579943	1437.078726696568	532.793970960111	773.830495570805	1484.182009630307	376.950110185039	824.514337736716	929.591753040671	530.974395590744	782.082133093361	947.561987520728	260.389061886425	813.739586321343	714.847324002487	509.184805399555	711.746989879431	623.638552573799	579.042014069973	766.340321756551	554.612508920308	497.250149769117	743.301332465713	462.671731238990	508.730921198259	857.090097624447	762.471643135448	306.537153055720	800.465820855533	627.782363348084	240.943248201361	897.614753119309	567.918825895763	307.200717430709	911.095447906543	493.457750464432	313.430154105054	881.868421330189	417.660577425332	304.828938121018	793.319346890851	305.881637021794	246.080973795133	837.872124647806	192.690522268173	316.908383735554	685.541752369910	388.025254654070	520.172800311123	587.569289613636	314.500883645610	591.057453690659	594.406270067514	208.989184733165	530.926854130129	414.383029914120	75.887486860122	515.802711896687	499.988747842400	52.228459850536	583.570519400889	704.644887220625	35.522437775761	561.144314725238	702.840304026725	38.568800022328	344.903651654016	782.632302334487	35.485702173796	269.926959717857	864.643921440402	96.164611518511	303.072023243305	994.251226608330	42.158275128302	283.342109998096	567.171731207328	1125.554779651198	148.297388142224	508.631713844962	875.100180095046	202.544904781720	1092.299210389052	1221.254873812849	624.481846518702	1294.713154323373	1314.468772184827	496.753416034431	
